<svg width="72" height="68" viewBox="0 0 72 68" fill="none" xmlns="http://www.w3.org/2000/svg">
<g clip-path="url(#clip0_161_109)">
<g filter="url(#filter0_f_161_109)">
<path d="M56.6343 19.8048C53.0788 14.6262 46.1262 12 35.9732 12H35.9567C25.8191 12.0028 18.8836 14.6301 15.3435 19.8088C12.3797 24.1436 12 29.6703 12 34C12 38.3297 12.3797 43.8558 15.3435 48.1906C18.8836 53.3687 25.8191 55.996 35.9572 56H35.9772C46.1296 56 53.0794 53.3744 56.6349 48.1957C59.617 43.8513 60 38.3275 60 34.0006C60 29.6737 59.6181 24.1499 56.6355 19.806L56.6343 19.8048Z" fill="url(#paint0_linear_161_109)"/>
</g>
<path d="M55.973 20.2225C52.5315 15.2099 45.8018 12.6676 35.9743 12.6676H35.9578C26.1452 12.6704 19.432 15.2133 16.0059 20.2259C13.1373 24.4219 12.7696 29.7712 12.7696 33.962C12.7696 38.1529 13.1373 43.5016 16.0059 47.6976C19.4326 52.7096 26.1457 55.2531 35.9584 55.2565H35.9772C45.8041 55.2565 52.5309 52.7147 55.9724 47.7021C58.8593 43.4971 59.2298 38.1501 59.2298 33.962C59.2298 29.774 58.8599 24.4276 55.973 20.2225Z" fill="#09090A"/>
<g clip-path="url(#clip1_161_109)">
<path d="M32.25 35.5V34C32.25 33.8011 32.329 33.6103 32.4697 33.4697C32.6103 33.329 32.8011 33.25 33 33.25C33.1989 33.25 33.3897 33.329 33.5303 33.4697C33.671 33.6103 33.75 33.8011 33.75 34V35.5C33.75 35.6989 33.671 35.8897 33.5303 36.0303C33.3897 36.171 33.1989 36.25 33 36.25C32.8011 36.25 32.6103 36.171 32.4697 36.0303C32.329 35.8897 32.25 35.6989 32.25 35.5ZM36 36.25C36.1989 36.25 36.3897 36.171 36.5303 36.0303C36.671 35.8897 36.75 35.6989 36.75 35.5V33.25C36.75 33.0511 36.671 32.8603 36.5303 32.7197C36.3897 32.579 36.1989 32.5 36 32.5C35.8011 32.5 35.6103 32.579 35.4697 32.7197C35.329 32.8603 35.25 33.0511 35.25 33.25V35.5C35.25 35.6989 35.329 35.8897 35.4697 36.0303C35.6103 36.171 35.8011 36.25 36 36.25ZM39 36.25C39.1989 36.25 39.3897 36.171 39.5303 36.0303C39.671 35.8897 39.75 35.6989 39.75 35.5V32.5C39.75 32.3011 39.671 32.1103 39.5303 31.9697C39.3897 31.829 39.1989 31.75 39 31.75C38.8011 31.75 38.6103 31.829 38.4697 31.9697C38.329 32.1103 38.25 32.3011 38.25 32.5V35.5C38.25 35.6989 38.329 35.8897 38.4697 36.0303C38.6103 36.171 38.8011 36.25 39 36.25ZM44.25 29.5V38.5H45C45.1989 38.5 45.3897 38.579 45.5303 38.7197C45.671 38.8603 45.75 39.0511 45.75 39.25C45.75 39.4489 45.671 39.6397 45.5303 39.7803C45.3897 39.921 45.1989 40 45 40H36.75V41.6294C37.2504 41.8063 37.6722 42.1544 37.9407 42.6122C38.2093 43.07 38.3073 43.6081 38.2176 44.1312C38.1278 44.6543 37.856 45.1288 37.4502 45.471C37.0444 45.8131 36.5308 46.0007 36 46.0007C35.4692 46.0007 34.9556 45.8131 34.5498 45.471C34.144 45.1288 33.8722 44.6543 33.7824 44.1312C33.6926 43.6081 33.7907 43.07 34.0593 42.6122C34.3278 42.1544 34.7496 41.8063 35.25 41.6294V40H27C26.8011 40 26.6103 39.921 26.4697 39.7803C26.329 39.6397 26.25 39.4489 26.25 39.25C26.25 39.0511 26.329 38.8603 26.4697 38.7197C26.6103 38.579 26.8011 38.5 27 38.5H27.75V29.5C27.3522 29.5 26.9706 29.342 26.6893 29.0607C26.408 28.7794 26.25 28.3978 26.25 28V26.5C26.25 26.1022 26.408 25.7206 26.6893 25.4393C26.9706 25.158 27.3522 25 27.75 25H44.25C44.6478 25 45.0294 25.158 45.3107 25.4393C45.592 25.7206 45.75 26.1022 45.75 26.5V28C45.75 28.3978 45.592 28.7794 45.3107 29.0607C45.0294 29.342 44.6478 29.5 44.25 29.5ZM36.75 43.75C36.75 43.6017 36.706 43.4567 36.6236 43.3333C36.5412 43.21 36.4241 43.1139 36.287 43.0571C36.15 43.0003 35.9992 42.9855 35.8537 43.0144C35.7082 43.0433 35.5746 43.1148 35.4697 43.2197C35.3648 43.3246 35.2933 43.4582 35.2644 43.6037C35.2355 43.7492 35.2503 43.9 35.3071 44.037C35.3639 44.1741 35.46 44.2912 35.5833 44.3736C35.7067 44.456 35.8517 44.5 36 44.5C36.1989 44.5 36.3897 44.421 36.5303 44.2803C36.671 44.1397 36.75 43.9489 36.75 43.75ZM27.75 28H44.25V26.5H27.75V28ZM42.75 29.5H29.25V38.5H42.75V29.5Z" fill="#E089F2"/>
</g>
</g>
<defs>
<filter id="filter0_f_161_109" x="0.59858" y="0.59858" width="70.8028" height="66.8028" filterUnits="userSpaceOnUse" color-interpolation-filters="sRGB">
<feFlood flood-opacity="0" result="BackgroundImageFix"/>
<feBlend mode="normal" in="SourceGraphic" in2="BackgroundImageFix" result="shape"/>
<feGaussianBlur stdDeviation="5.70071" result="effect1_foregroundBlur_161_109"/>
</filter>
<linearGradient id="paint0_linear_161_109" x1="11.9994" y1="33.9994" x2="59.9994" y2="33.9994" gradientUnits="userSpaceOnUse">
<stop stop-color="#E089F2"/>
<stop offset="1" stop-color="#E089F2" stop-opacity="0.25"/>
</linearGradient>
<clipPath id="clip0_161_109">
<rect width="72" height="68" fill="white"/>
</clipPath>
<clipPath id="clip1_161_109">
<rect width="24" height="24" fill="white" transform="translate(24 22)"/>
</clipPath>
</defs>
</svg>
