<svg width="72" height="68" viewBox="0 0 72 68" fill="none" xmlns="http://www.w3.org/2000/svg">
<g clip-path="url(#clip0_161_109)">
<g filter="url(#filter0_f_161_109)">
<path d="M56.6343 19.8048C53.0788 14.6262 46.1262 12 35.9732 12H35.9567C25.8191 12.0028 18.8836 14.6301 15.3435 19.8088C12.3797 24.1436 12 29.6703 12 34C12 38.3297 12.3797 43.8558 15.3435 48.1906C18.8836 53.3687 25.8191 55.996 35.9572 56H35.9772C46.1296 56 53.0794 53.3744 56.6349 48.1957C59.617 43.8513 60 38.3275 60 34.0006C60 29.6737 59.6181 24.1499 56.6355 19.806L56.6343 19.8048Z" fill="url(#paint0_linear_161_109)"/>
</g>
<path d="M55.973 20.2225C52.5315 15.2099 45.8018 12.6676 35.9743 12.6676H35.9578C26.1452 12.6704 19.432 15.2133 16.0059 20.2259C13.1373 24.4219 12.7696 29.7712 12.7696 33.962C12.7696 38.1529 13.1373 43.5016 16.0059 47.6976C19.4326 52.7096 26.1457 55.2531 35.9584 55.2565H35.9772C45.8041 55.2565 52.5309 52.7147 55.9724 47.7021C58.8593 43.4971 59.2298 38.1501 59.2298 33.962C59.2298 29.774 58.8599 24.4276 55.973 20.2225Z" fill="#09090A"/>
<g clip-path="url(#clip1_161_109)">
<path d="M35.25 25.75V23.5C35.25 23.3011 35.329 23.1103 35.4697 22.9697C35.6103 22.829 35.8011 22.75 36 22.75C36.1989 22.75 36.3897 22.829 36.5303 22.9697C36.671 23.1103 36.75 23.3011 36.75 23.5V25.75C36.75 25.9489 36.671 26.1397 36.5303 26.2803C36.3897 26.421 36.1989 26.5 36 26.5C35.8011 26.5 35.6103 26.421 35.4697 26.2803C35.329 26.1397 35.25 25.9489 35.25 25.75ZM42 34C42 35.1867 41.6481 36.3467 40.9888 37.3334C40.3295 38.3201 39.3925 39.0892 38.2961 39.5433C37.1997 39.9974 35.9933 40.1162 34.8295 39.8847C33.6656 39.6532 32.5965 39.0818 31.7574 38.2426C30.9182 37.4035 30.3468 36.3344 30.1153 35.1705C29.8838 34.0067 30.0026 32.8003 30.4567 31.7039C30.9108 30.6075 31.6799 29.6705 32.6666 29.0112C33.6533 28.3519 34.8133 28 36 28C37.5908 28.0017 39.1159 28.6344 40.2407 29.7593C41.3656 30.8841 41.9983 32.4092 42 34ZM40.5 34C40.5 33.11 40.2361 32.24 39.7416 31.4999C39.2471 30.7599 38.5443 30.1831 37.7221 29.8425C36.8998 29.5019 35.995 29.4128 35.1221 29.5865C34.2492 29.7601 33.4474 30.1887 32.818 30.818C32.1887 31.4474 31.7601 32.2492 31.5865 33.1221C31.4128 33.995 31.5019 34.8998 31.8425 35.7221C32.1831 36.5443 32.7599 37.2471 33.4999 37.7416C34.24 38.2361 35.11 38.5 36 38.5C37.1931 38.4988 38.337 38.0243 39.1806 37.1806C40.0243 36.337 40.4988 35.1931 40.5 34ZM29.4694 28.5306C29.6101 28.6714 29.801 28.7504 30 28.7504C30.199 28.7504 30.3899 28.6714 30.5306 28.5306C30.6714 28.3899 30.7504 28.199 30.7504 28C30.7504 27.801 30.6714 27.6101 30.5306 27.4694L29.0306 25.9694C28.8899 25.8286 28.699 25.7496 28.5 25.7496C28.301 25.7496 28.1101 25.8286 27.9694 25.9694C27.8286 26.1101 27.7496 26.301 27.7496 26.5C27.7496 26.699 27.8286 26.8899 27.9694 27.0306L29.4694 28.5306ZM29.4694 39.4694L27.9694 40.9694C27.8286 41.1101 27.7496 41.301 27.7496 41.5C27.7496 41.699 27.8286 41.8899 27.9694 42.0306C28.1101 42.1714 28.301 42.2504 28.5 42.2504C28.699 42.2504 28.8899 42.1714 29.0306 42.0306L30.5306 40.5306C30.6003 40.4609 30.6556 40.3782 30.6933 40.2872C30.731 40.1961 30.7504 40.0985 30.7504 40C30.7504 39.9015 30.731 39.8039 30.6933 39.7128C30.6556 39.6218 30.6003 39.5391 30.5306 39.4694C30.4609 39.3997 30.3782 39.3444 30.2872 39.3067C30.1961 39.269 30.0985 39.2496 30 39.2496C29.9015 39.2496 29.8039 39.269 29.7128 39.3067C29.6218 39.3444 29.5391 39.3997 29.4694 39.4694ZM42 28.75C42.0985 28.7501 42.1961 28.7307 42.2871 28.6931C42.3782 28.6555 42.4609 28.6003 42.5306 28.5306L44.0306 27.0306C44.1714 26.8899 44.2504 26.699 44.2504 26.5C44.2504 26.301 44.1714 26.1101 44.0306 25.9694C43.8899 25.8286 43.699 25.7496 43.5 25.7496C43.301 25.7496 43.1101 25.8286 42.9694 25.9694L41.4694 27.4694C41.3644 27.5743 41.2928 27.708 41.2639 27.8535C41.2349 27.9991 41.2497 28.15 41.3065 28.2871C41.3633 28.4242 41.4596 28.5414 41.583 28.6238C41.7065 28.7062 41.8516 28.7501 42 28.75ZM42.5306 39.4694C42.3899 39.3286 42.199 39.2496 42 39.2496C41.801 39.2496 41.6101 39.3286 41.4694 39.4694C41.3286 39.6101 41.2496 39.801 41.2496 40C41.2496 40.199 41.3286 40.3899 41.4694 40.5306L42.9694 42.0306C43.0391 42.1003 43.1218 42.1556 43.2128 42.1933C43.3039 42.231 43.4015 42.2504 43.5 42.2504C43.5985 42.2504 43.6961 42.231 43.7872 42.1933C43.8782 42.1556 43.9609 42.1003 44.0306 42.0306C44.1003 41.9609 44.1556 41.8782 44.1933 41.7872C44.231 41.6961 44.2504 41.5985 44.2504 41.5C44.2504 41.4015 44.231 41.3039 44.1933 41.2128C44.1556 41.1218 44.1003 41.0391 44.0306 40.9694L42.5306 39.4694ZM28.5 34C28.5 33.8011 28.421 33.6103 28.2803 33.4697C28.1397 33.329 27.9489 33.25 27.75 33.25H25.5C25.3011 33.25 25.1103 33.329 24.9697 33.4697C24.829 33.6103 24.75 33.8011 24.75 34C24.75 34.1989 24.829 34.3897 24.9697 34.5303C25.1103 34.671 25.3011 34.75 25.5 34.75H27.75C27.9489 34.75 28.1397 34.671 28.2803 34.5303C28.421 34.3897 28.5 34.1989 28.5 34ZM36 41.5C35.8011 41.5 35.6103 41.579 35.4697 41.7197C35.329 41.8603 35.25 42.0511 35.25 42.25V44.5C35.25 44.6989 35.329 44.8897 35.4697 45.0303C35.6103 45.171 35.8011 45.25 36 45.25C36.1989 45.25 36.3897 45.171 36.5303 45.0303C36.671 44.8897 36.75 44.6989 36.75 44.5V42.25C36.75 42.0511 36.671 41.8603 36.5303 41.7197C36.3897 41.579 36.1989 41.5 36 41.5ZM46.5 33.25H44.25C44.0511 33.25 43.8603 33.329 43.7197 33.4697C43.579 33.6103 43.5 33.8011 43.5 34C43.5 34.1989 43.579 34.3897 43.7197 34.5303C43.8603 34.671 44.0511 34.75 44.25 34.75H46.5C46.6989 34.75 46.8897 34.671 47.0303 34.5303C47.171 34.3897 47.25 34.1989 47.25 34C47.25 33.8011 47.171 33.6103 47.0303 33.4697C46.8897 33.329 46.6989 33.25 46.5 33.25Z" fill="#EB6756"/>
</g>
</g>
<defs>
<filter id="filter0_f_161_109" x="0.59858" y="0.59858" width="70.8028" height="66.8028" filterUnits="userSpaceOnUse" color-interpolation-filters="sRGB">
<feFlood flood-opacity="0" result="BackgroundImageFix"/>
<feBlend mode="normal" in="SourceGraphic" in2="BackgroundImageFix" result="shape"/>
<feGaussianBlur stdDeviation="5.70071" result="effect1_foregroundBlur_161_109"/>
</filter>
<linearGradient id="paint0_linear_161_109" x1="11.9994" y1="33.9994" x2="59.9994" y2="33.9994" gradientUnits="userSpaceOnUse">
<stop stop-color="#EB6756"/>
<stop offset="1" stop-color="#EB6756" stop-opacity="0.25"/>
</linearGradient>
<clipPath id="clip0_161_109">
<rect width="72" height="68" fill="white"/>
</clipPath>
<clipPath id="clip1_161_109">
<rect width="24" height="24" fill="white" transform="translate(24 22)"/>
</clipPath>
</defs>
</svg>
