<svg width="72" height="68" viewBox="0 0 72 68" fill="none" xmlns="http://www.w3.org/2000/svg">
<g clip-path="url(#clip0_38_304)">
<g filter="url(#filter0_f_38_304)">
<path d="M56.6343 19.8048C53.0788 14.6262 46.1262 12 35.9732 12H35.9567C25.8191 12.0028 18.8836 14.6301 15.3435 19.8088C12.3797 24.1436 12 29.6703 12 34C12 38.3297 12.3797 43.8558 15.3435 48.1906C18.8836 53.3687 25.8191 55.996 35.9572 56H35.9772C46.1296 56 53.0794 53.3744 56.6349 48.1957C59.617 43.8513 60 38.3275 60 34.0006C60 29.6737 59.6181 24.1499 56.6355 19.806L56.6343 19.8048Z" fill="url(#paint0_linear_38_304)"/>
</g>
<path d="M55.973 20.2225C52.5315 15.2099 45.8018 12.6676 35.9743 12.6676H35.9578C26.1452 12.6704 19.432 15.2133 16.0059 20.2259C13.1373 24.4219 12.7696 29.7712 12.7696 33.962C12.7696 38.1529 13.1373 43.5016 16.0059 47.6976C19.4326 52.7096 26.1457 55.2531 35.9584 55.2565H35.9772C45.8041 55.2565 52.5309 52.7147 55.9724 47.7021C58.8593 43.4971 59.2298 38.1501 59.2298 33.962C59.2298 29.774 58.8599 24.4276 55.973 20.2225Z" fill="#09090A"/>
<path d="M44.25 28H29.25C29.0511 28 28.8603 27.921 28.7197 27.7803C28.579 27.6397 28.5 27.4489 28.5 27.25C28.5 27.0511 28.579 26.8603 28.7197 26.7197C28.8603 26.579 29.0511 26.5 29.25 26.5H42C42.1989 26.5 42.3897 26.421 42.5303 26.2803C42.671 26.1397 42.75 25.9489 42.75 25.75C42.75 25.5511 42.671 25.3603 42.5303 25.2197C42.3897 25.079 42.1989 25 42 25H29.25C28.6533 25 28.081 25.2371 27.659 25.659C27.2371 26.081 27 26.6533 27 27.25V39.25C27 39.8467 27.2371 40.419 27.659 40.841C28.081 41.2629 28.6533 41.5 29.25 41.5H44.25C44.6478 41.5 45.0294 41.342 45.3107 41.0607C45.592 40.7794 45.75 40.3978 45.75 40V29.5C45.75 29.1022 45.592 28.7206 45.3107 28.4393C45.0294 28.158 44.6478 28 44.25 28ZM40.875 35.5C40.6525 35.5 40.435 35.434 40.25 35.3104C40.065 35.1868 39.9208 35.0111 39.8356 34.8055C39.7505 34.6 39.7282 34.3738 39.7716 34.1555C39.815 33.9373 39.9222 33.7368 40.0795 33.5795C40.2368 33.4222 40.4373 33.315 40.6555 33.2716C40.8738 33.2282 41.1 33.2505 41.3055 33.3356C41.5111 33.4208 41.6868 33.565 41.8104 33.75C41.934 33.935 42 34.1525 42 34.375C42 34.6734 41.8815 34.9595 41.6705 35.1705C41.4595 35.3815 41.1734 35.5 40.875 35.5Z" fill="#B97C1F"/>
</g>
<defs>
<filter id="filter0_f_38_304" x="0.59858" y="0.59858" width="70.8028" height="66.8028" filterUnits="userSpaceOnUse" color-interpolation-filters="sRGB">
<feFlood flood-opacity="0" result="BackgroundImageFix"/>
<feBlend mode="normal" in="SourceGraphic" in2="BackgroundImageFix" result="shape"/>
<feGaussianBlur stdDeviation="5.70071" result="effect1_foregroundBlur_38_304"/>
</filter>
<linearGradient id="paint0_linear_38_304" x1="11.9994" y1="33.9994" x2="59.9994" y2="33.9994" gradientUnits="userSpaceOnUse">
<stop stop-color="#B97C1F"/>
<stop offset="1" stop-color="#B97C1F" stop-opacity="0.25"/>
</linearGradient>
<clipPath id="clip0_38_304">
<rect width="72" height="68" fill="white"/>
</clipPath>
</defs>
</svg>
