<svg width="72" height="69" viewBox="0 0 72 69" fill="none" xmlns="http://www.w3.org/2000/svg">
<g filter="url(#filter0_f_38_319)">
<path d="M56.6343 20.3048C53.0788 15.1262 46.1262 12.5 35.9732 12.5H35.9567C25.8191 12.5028 18.8836 15.1301 15.3435 20.3088C12.3797 24.6436 12 30.1703 12 34.5C12 38.8297 12.3797 44.3558 15.3435 48.6906C18.8836 53.8687 25.8191 56.496 35.9572 56.5H35.9772C46.1296 56.5 53.0794 53.8744 56.6349 48.6957C59.617 44.3513 60 38.8275 60 34.5006C60 30.1737 59.6181 24.6499 56.6355 20.306L56.6343 20.3048Z" fill="url(#paint0_linear_38_319)"/>
</g>
<path d="M55.973 20.7225C52.5315 15.7099 45.8018 13.1676 35.9743 13.1676H35.9578C26.1452 13.1704 19.432 15.7133 16.0059 20.7259C13.1373 24.9219 12.7696 30.2712 12.7696 34.462C12.7696 38.6529 13.1373 44.0016 16.0059 48.1976C19.4326 53.2096 26.1457 55.7531 35.9584 55.7565H35.9772C45.8041 55.7565 52.5309 53.2147 55.9724 48.2021C58.8593 43.9971 59.2298 38.6501 59.2298 34.462C59.2298 30.274 58.8599 24.9276 55.973 20.7225Z" fill="#09090A"/>
<path d="M45.5934 36.2244C45.3144 36.0096 44.9895 35.8621 44.6442 35.7934C44.2988 35.7246 43.9422 35.7364 43.6022 35.8278L39.6797 36.7297C39.7709 36.3442 39.7738 35.943 39.6879 35.5562C39.6021 35.1695 39.4298 34.8072 39.1841 34.4965C38.9383 34.1858 38.6254 33.9347 38.2688 33.7621C37.9122 33.5896 37.5212 33.4999 37.125 33.5H32.4319C32.0377 33.499 31.6473 33.5761 31.2832 33.7269C30.919 33.8777 30.5884 34.0991 30.3103 34.3784L28.1897 36.5H25.5C25.1022 36.5 24.7206 36.658 24.4393 36.9393C24.158 37.2206 24 37.6022 24 38V41.75C24 42.1478 24.158 42.5293 24.4393 42.8106C24.7206 43.0919 25.1022 43.25 25.5 43.25H35.25C35.3113 43.25 35.3724 43.2425 35.4319 43.2275L41.4319 41.7275C41.4704 41.7182 41.508 41.7057 41.5444 41.69L45.1875 40.1394L45.2288 40.1206C45.579 39.9456 45.8789 39.6843 46.1002 39.3614C46.3215 39.0384 46.457 38.6645 46.4939 38.2747C46.5307 37.8849 46.4678 37.4922 46.3109 37.1335C46.154 36.7748 45.9084 36.4619 45.5972 36.2244H45.5934ZM27.75 41.75H25.5V38H27.75V41.75ZM44.5716 38.7697L41.0091 40.2865L35.1562 41.75H29.25V37.5603L31.3716 35.4397C31.5103 35.2998 31.6756 35.1889 31.8576 35.1134C32.0396 35.0379 32.2348 34.9994 32.4319 35H37.125C37.4234 35 37.7095 35.1185 37.9205 35.3295C38.1315 35.5405 38.25 35.8266 38.25 36.125C38.25 36.4233 38.1315 36.7095 37.9205 36.9205C37.7095 37.1315 37.4234 37.25 37.125 37.25H34.5C34.3011 37.25 34.1103 37.329 33.9697 37.4696C33.829 37.6103 33.75 37.8011 33.75 38C33.75 38.1989 33.829 38.3897 33.9697 38.5303C34.1103 38.671 34.3011 38.75 34.5 38.75H37.5C37.5565 38.7498 37.6127 38.7435 37.6678 38.7312L43.9491 37.2865L43.9781 37.279C44.1699 37.2258 44.3745 37.2454 44.5527 37.334C44.7309 37.4226 44.87 37.5739 44.9433 37.7589C45.0167 37.9439 45.0189 38.1495 44.9498 38.3361C44.8806 38.5227 44.7449 38.6771 44.5687 38.7697H44.5716ZM38.4694 28.7806C38.3996 28.7109 38.3443 28.6282 38.3066 28.5372C38.2688 28.4461 38.2494 28.3485 38.2494 28.25C38.2494 28.1514 38.2688 28.0538 38.3066 27.9628C38.3443 27.8717 38.3996 27.789 38.4694 27.7194L41.4694 24.7194C41.539 24.6496 41.6217 24.5943 41.7128 24.5566C41.8038 24.5188 41.9014 24.4994 42 24.4994C42.0986 24.4994 42.1962 24.5188 42.2872 24.5566C42.3783 24.5943 42.461 24.6496 42.5306 24.7194L45.5306 27.7194C45.6003 27.789 45.6556 27.8718 45.6933 27.9628C45.731 28.0539 45.7504 28.1514 45.7504 28.25C45.7504 28.3485 45.731 28.4461 45.6933 28.5372C45.6556 28.6282 45.6003 28.7109 45.5306 28.7806C45.4609 28.8503 45.3782 28.9056 45.2872 28.9433C45.1961 28.981 45.0985 29.0004 45 29.0004C44.9015 29.0004 44.8039 28.981 44.7128 28.9433C44.6218 28.9056 44.5391 28.8503 44.4694 28.7806L42.75 27.0603V32.75C42.75 32.9489 42.671 33.1397 42.5303 33.2803C42.3897 33.421 42.1989 33.5 42 33.5C41.8011 33.5 41.6103 33.421 41.4697 33.2803C41.329 33.1397 41.25 32.9489 41.25 32.75V27.0603L39.5306 28.7806C39.461 28.8503 39.3783 28.9057 39.2872 28.9434C39.1962 28.9811 39.0986 29.0006 39 29.0006C38.9014 29.0006 38.8038 28.9811 38.7128 28.9434C38.6217 28.9057 38.539 28.8503 38.4694 28.7806Z" fill="#43A047"/>
<defs>
<filter id="filter0_f_38_319" x="0.59858" y="1.09858" width="70.8028" height="66.8028" filterUnits="userSpaceOnUse" color-interpolation-filters="sRGB">
<feFlood flood-opacity="0" result="BackgroundImageFix"/>
<feBlend mode="normal" in="SourceGraphic" in2="BackgroundImageFix" result="shape"/>
<feGaussianBlur stdDeviation="5.70071" result="effect1_foregroundBlur_38_319"/>
</filter>
<linearGradient id="paint0_linear_38_319" x1="11.9994" y1="34.4994" x2="59.9994" y2="34.4994" gradientUnits="userSpaceOnUse">
<stop stop-color="#43A047"/>
<stop offset="1" stop-color="#43A047" stop-opacity="0.25"/>
</linearGradient>
</defs>
</svg>
