<svg width="72" height="68" viewBox="0 0 72 68" fill="none" xmlns="http://www.w3.org/2000/svg">
<g clip-path="url(#clip0_161_109)">
<g filter="url(#filter0_f_161_109)">
<path d="M56.6343 19.8048C53.0788 14.6262 46.1262 12 35.9732 12H35.9567C25.8191 12.0028 18.8836 14.6301 15.3435 19.8088C12.3797 24.1436 12 29.6703 12 34C12 38.3297 12.3797 43.8558 15.3435 48.1906C18.8836 53.3687 25.8191 55.996 35.9572 56H35.9772C46.1296 56 53.0794 53.3744 56.6349 48.1957C59.617 43.8513 60 38.3275 60 34.0006C60 29.6737 59.6181 24.1499 56.6355 19.806L56.6343 19.8048Z" fill="url(#paint0_linear_161_109)"/>
</g>
<path d="M55.973 20.2225C52.5315 15.2099 45.8018 12.6676 35.9743 12.6676H35.9578C26.1452 12.6704 19.432 15.2133 16.0059 20.2259C13.1373 24.4219 12.7696 29.7712 12.7696 33.962C12.7696 38.1529 13.1373 43.5016 16.0059 47.6976C19.4326 52.7096 26.1457 55.2531 35.9584 55.2565H35.9772C45.8041 55.2565 52.5309 52.7147 55.9724 47.7021C58.8593 43.4971 59.2298 38.1501 59.2298 33.962C59.2298 29.774 58.8599 24.4276 55.973 20.2225Z" fill="#09090A"/>
<path d="M42.6216 27.3784C42.0599 26.8169 41.2986 26.501 40.5044 26.5C39.7103 26.4989 38.9481 26.8128 38.385 27.3728L37.2928 28.5175C37.1531 28.6481 36.9689 28.7203 36.7777 28.7196C36.5865 28.7188 36.4028 28.645 36.2642 28.5133C36.1255 28.3817 36.0424 28.202 36.0318 28.0111C36.0213 27.8202 36.084 27.6325 36.2072 27.4863L37.3059 26.3341C37.3098 26.3298 37.3138 26.3257 37.3181 26.3219C38.1644 25.4893 39.3053 25.0249 40.4924 25.0297C41.6795 25.0345 42.8166 25.5083 43.6561 26.3477C44.4955 27.1871 44.9692 28.3242 44.974 29.5113C44.9789 30.6985 44.5144 31.8394 43.6819 32.6856C43.6781 32.6899 43.674 32.694 43.6697 32.6978L42.5175 33.7966C42.3713 33.9198 42.1836 33.9825 41.9927 33.9719C41.8017 33.9613 41.6221 33.8782 41.4904 33.7396C41.3587 33.601 41.285 33.4173 41.2842 33.2261C41.2834 33.0349 41.3557 32.8506 41.4863 32.7109L42.6309 31.6187C43.1916 31.055 43.5055 30.2917 43.5038 29.4967C43.502 28.7016 43.1847 27.9397 42.6216 27.3784ZM34.7072 39.4825L33.615 40.6272C33.0497 41.1762 32.291 41.4808 31.503 41.475C30.715 41.4692 29.9608 41.1536 29.4036 40.5964C28.8464 40.0392 28.5308 39.285 28.525 38.497C28.5192 37.709 28.8238 36.9503 29.3728 36.385L30.5175 35.2928C30.6481 35.1531 30.7203 34.9689 30.7196 34.7777C30.7188 34.5865 30.645 34.4028 30.5133 34.2642C30.3817 34.1255 30.202 34.0424 30.0111 34.0318C29.8202 34.0213 29.6325 34.084 29.4863 34.2072L28.3303 35.3059C28.326 35.3098 28.3219 35.3138 28.3181 35.3181C27.4856 36.1644 27.0211 37.3053 27.026 38.4924C27.0308 39.6795 27.5045 40.8166 28.3439 41.6561C29.1834 42.4955 30.3205 42.9692 31.5076 42.974C32.6947 42.9789 33.8356 42.5144 34.6819 41.6819C34.6862 41.6781 34.6902 41.674 34.6941 41.6697L35.7928 40.5175C35.8675 40.4477 35.9271 40.3633 35.968 40.2696C36.009 40.1759 36.0303 40.0748 36.0307 39.9726C36.0311 39.8704 36.0106 39.7691 35.9705 39.6751C35.9303 39.581 35.8714 39.4962 35.7972 39.4258C35.7231 39.3554 35.6353 39.3009 35.5394 39.2656C35.4434 39.2303 35.3412 39.2151 35.2392 39.2207C35.1371 39.2264 35.0372 39.2529 34.9457 39.2985C34.8543 39.3442 34.7731 39.4081 34.7072 39.4863V39.4825ZM44.25 36.25H42C41.8011 36.25 41.6103 36.329 41.4697 36.4697C41.329 36.6103 41.25 36.8011 41.25 37C41.25 37.1989 41.329 37.3897 41.4697 37.5303C41.6103 37.671 41.8011 37.75 42 37.75H44.25C44.4489 37.75 44.6397 37.671 44.7803 37.5303C44.921 37.3897 45 37.1989 45 37C45 36.8011 44.921 36.6103 44.7803 36.4697C44.6397 36.329 44.4489 36.25 44.25 36.25ZM27.75 31.75H30C30.1989 31.75 30.3897 31.671 30.5303 31.5303C30.671 31.3897 30.75 31.1989 30.75 31C30.75 30.8011 30.671 30.6103 30.5303 30.4697C30.3897 30.329 30.1989 30.25 30 30.25H27.75C27.5511 30.25 27.3603 30.329 27.2197 30.4697C27.079 30.6103 27 30.8011 27 31C27 31.1989 27.079 31.3897 27.2197 31.5303C27.3603 31.671 27.5511 31.75 27.75 31.75ZM39 39.25C38.8011 39.25 38.6103 39.329 38.4697 39.4697C38.329 39.6103 38.25 39.8011 38.25 40V42.25C38.25 42.4489 38.329 42.6397 38.4697 42.7803C38.6103 42.921 38.8011 43 39 43C39.1989 43 39.3897 42.921 39.5303 42.7803C39.671 42.6397 39.75 42.4489 39.75 42.25V40C39.75 39.8011 39.671 39.6103 39.5303 39.4697C39.3897 39.329 39.1989 39.25 39 39.25ZM33 28.75C33.1989 28.75 33.3897 28.671 33.5303 28.5303C33.671 28.3897 33.75 28.1989 33.75 28V25.75C33.75 25.5511 33.671 25.3603 33.5303 25.2197C33.3897 25.079 33.1989 25 33 25C32.8011 25 32.6103 25.079 32.4697 25.2197C32.329 25.3603 32.25 25.5511 32.25 25.75V28C32.25 28.1989 32.329 28.3897 32.4697 28.5303C32.6103 28.671 32.8011 28.75 33 28.75Z" fill="#48C6E9"/>
</g>
<defs>
<filter id="filter0_f_161_109" x="0.59858" y="0.59858" width="70.8028" height="66.8028" filterUnits="userSpaceOnUse" color-interpolation-filters="sRGB">
<feFlood flood-opacity="0" result="BackgroundImageFix"/>
<feBlend mode="normal" in="SourceGraphic" in2="BackgroundImageFix" result="shape"/>
<feGaussianBlur stdDeviation="5.70071" result="effect1_foregroundBlur_161_109"/>
</filter>
<linearGradient id="paint0_linear_161_109" x1="11.9994" y1="33.9994" x2="59.9994" y2="33.9994" gradientUnits="userSpaceOnUse">
<stop stop-color="#48C6E9"/>
<stop offset="1" stop-color="#48C6E9" stop-opacity="0.25"/>
</linearGradient>
<clipPath id="clip0_161_109">
<rect width="72" height="68" fill="white"/>
</clipPath>
</defs>
</svg>
