<svg width="72" height="68" viewBox="0 0 72 68" fill="none" xmlns="http://www.w3.org/2000/svg">
<g clip-path="url(#clip0_161_109)">
<g filter="url(#filter0_f_161_109)">
<path d="M56.6343 19.8048C53.0788 14.6262 46.1262 12 35.9732 12H35.9567C25.8191 12.0028 18.8836 14.6301 15.3435 19.8088C12.3797 24.1436 12 29.6703 12 34C12 38.3297 12.3797 43.8558 15.3435 48.1906C18.8836 53.3687 25.8191 55.996 35.9572 56H35.9772C46.1296 56 53.0794 53.3744 56.6349 48.1957C59.617 43.8513 60 38.3275 60 34.0006C60 29.6737 59.6181 24.1499 56.6355 19.806L56.6343 19.8048Z" fill="url(#paint0_linear_161_109)"/>
</g>
<path d="M55.973 20.2225C52.5315 15.2099 45.8018 12.6676 35.9743 12.6676H35.9578C26.1452 12.6704 19.432 15.2133 16.0059 20.2259C13.1373 24.4219 12.7696 29.7712 12.7696 33.962C12.7696 38.1529 13.1373 43.5016 16.0059 47.6976C19.4326 52.7096 26.1457 55.2531 35.9584 55.2565H35.9772C45.8041 55.2565 52.5309 52.7147 55.9724 47.7021C58.8593 43.4971 59.2298 38.1501 59.2298 33.962C59.2298 29.774 58.8599 24.4276 55.973 20.2225Z" fill="#09090A"/>
<path d="M43.5 25H41.25V24.25C41.25 24.0511 41.171 23.8603 41.0303 23.7197C40.8897 23.579 40.6989 23.5 40.5 23.5C40.3011 23.5 40.1103 23.579 39.9697 23.7197C39.829 23.8603 39.75 24.0511 39.75 24.25V25H32.25V24.25C32.25 24.0511 32.171 23.8603 32.0303 23.7197C31.8897 23.579 31.6989 23.5 31.5 23.5C31.3011 23.5 31.1103 23.579 30.9697 23.7197C30.829 23.8603 30.75 24.0511 30.75 24.25V25H28.5C28.1022 25 27.7206 25.158 27.4393 25.4393C27.158 25.7206 27 26.1022 27 26.5V41.5C27 41.8978 27.158 42.2794 27.4393 42.5607C27.7206 42.842 28.1022 43 28.5 43H43.5C43.8978 43 44.2794 42.842 44.5607 42.5607C44.842 42.2794 45 41.8978 45 41.5V26.5C45 26.1022 44.842 25.7206 44.5607 25.4393C44.2794 25.158 43.8978 25 43.5 25ZM30.75 26.5V27.25C30.75 27.4489 30.829 27.6397 30.9697 27.7803C31.1103 27.921 31.3011 28 31.5 28C31.6989 28 31.8897 27.921 32.0303 27.7803C32.171 27.6397 32.25 27.4489 32.25 27.25V26.5H39.75V27.25C39.75 27.4489 39.829 27.6397 39.9697 27.7803C40.1103 27.921 40.3011 28 40.5 28C40.6989 28 40.8897 27.921 41.0303 27.7803C41.171 27.6397 41.25 27.4489 41.25 27.25V26.5H43.5V29.5H28.5V26.5H30.75ZM43.5 41.5H28.5V31H43.5V41.5ZM37.125 34.375C37.125 34.5975 37.059 34.815 36.9354 35C36.8118 35.185 36.6361 35.3292 36.4305 35.4144C36.225 35.4995 35.9988 35.5218 35.7805 35.4784C35.5623 35.435 35.3618 35.3278 35.2045 35.1705C35.0472 35.0132 34.94 34.8127 34.8966 34.5945C34.8532 34.3762 34.8755 34.15 34.9606 33.9445C35.0458 33.7389 35.19 33.5632 35.375 33.4396C35.56 33.316 35.7775 33.25 36 33.25C36.2984 33.25 36.5845 33.3685 36.7955 33.5795C37.0065 33.7905 37.125 34.0766 37.125 34.375ZM41.25 34.375C41.25 34.5975 41.184 34.815 41.0604 35C40.9368 35.185 40.7611 35.3292 40.5555 35.4144C40.35 35.4995 40.1238 35.5218 39.9055 35.4784C39.6873 35.435 39.4868 35.3278 39.3295 35.1705C39.1722 35.0132 39.065 34.8127 39.0216 34.5945C38.9782 34.3762 39.0005 34.15 39.0856 33.9445C39.1708 33.7389 39.315 33.5632 39.5 33.4396C39.685 33.316 39.9025 33.25 40.125 33.25C40.4234 33.25 40.7095 33.3685 40.9205 33.5795C41.1315 33.7905 41.25 34.0766 41.25 34.375ZM33 38.125C33 38.3475 32.934 38.565 32.8104 38.75C32.6868 38.935 32.5111 39.0792 32.3055 39.1644C32.1 39.2495 31.8738 39.2718 31.6555 39.2284C31.4373 39.185 31.2368 39.0778 31.0795 38.9205C30.9222 38.7632 30.815 38.5627 30.7716 38.3445C30.7282 38.1262 30.7505 37.9 30.8356 37.6945C30.9208 37.4889 31.065 37.3132 31.25 37.1896C31.435 37.066 31.6525 37 31.875 37C32.1734 37 32.4595 37.1185 32.6705 37.3295C32.8815 37.5405 33 37.8266 33 38.125ZM37.125 38.125C37.125 38.3475 37.059 38.565 36.9354 38.75C36.8118 38.935 36.6361 39.0792 36.4305 39.1644C36.225 39.2495 35.9988 39.2718 35.7805 39.2284C35.5623 39.185 35.3618 39.0778 35.2045 38.9205C35.0472 38.7632 34.94 38.5627 34.8966 38.3445C34.8532 38.1262 34.8755 37.9 34.9606 37.6945C35.0458 37.4889 35.19 37.3132 35.375 37.1896C35.56 37.066 35.7775 37 36 37C36.2984 37 36.5845 37.1185 36.7955 37.3295C37.0065 37.5405 37.125 37.8266 37.125 38.125ZM41.25 38.125C41.25 38.3475 41.184 38.565 41.0604 38.75C40.9368 38.935 40.7611 39.0792 40.5555 39.1644C40.35 39.2495 40.1238 39.2718 39.9055 39.2284C39.6873 39.185 39.4868 39.0778 39.3295 38.9205C39.1722 38.7632 39.065 38.5627 39.0216 38.3445C38.9782 38.1262 39.0005 37.9 39.0856 37.6945C39.1708 37.4889 39.315 37.3132 39.5 37.1896C39.685 37.066 39.9025 37 40.125 37C40.4234 37 40.7095 37.1185 40.9205 37.3295C41.1315 37.5405 41.25 37.8266 41.25 38.125Z" fill="#8752F2"/>
</g>
<defs>
<filter id="filter0_f_161_109" x="0.59858" y="0.59858" width="70.8028" height="66.8028" filterUnits="userSpaceOnUse" color-interpolation-filters="sRGB">
<feFlood flood-opacity="0" result="BackgroundImageFix"/>
<feBlend mode="normal" in="SourceGraphic" in2="BackgroundImageFix" result="shape"/>
<feGaussianBlur stdDeviation="5.70071" result="effect1_foregroundBlur_161_109"/>
</filter>
<linearGradient id="paint0_linear_161_109" x1="11.9994" y1="33.9994" x2="59.9994" y2="33.9994" gradientUnits="userSpaceOnUse">
<stop stop-color="#8752F2"/>
<stop offset="1" stop-color="#8752F2" stop-opacity="0.25"/>
</linearGradient>
<clipPath id="clip0_161_109">
<rect width="72" height="68" fill="white"/>
</clipPath>
</defs>
</svg>
