<svg width="82" height="38" viewBox="0 0 82 38" fill="none" xmlns="http://www.w3.org/2000/svg">
<path d="M69.2669 24.0132C74.1733 24.0133 75.6664 26.9524 75.6664 30.8404C75.8795 35.7465 72.8013 37.8793 69.2669 37.8794C65.7324 37.8794 62.6535 35.5334 62.8666 30.8404C62.8666 26.9523 65.0003 24.0132 69.2669 24.0132ZM69.2669 25.9331C66.4937 25.7198 64.6729 27.4262 64.8861 30.8394C64.8861 33.8259 66.4612 35.7465 69.0531 35.7466C71.6451 35.7466 73.9598 35.5331 73.7464 30.1997C73.7464 27.6078 72.2534 25.7199 69.2669 25.9331Z" fill="#DA5214"/>
<path d="M57.7467 37.4532V24.4399V24.0132H59.4533V25.2932C59.9653 24.6105 61.0889 24.0843 61.5867 24.0132H63.08V25.9332H61.3733C60.3493 26.1039 59.7378 27.1421 59.4533 27.6399V37.4532H57.7467Z" fill="#DA5214"/>
<path d="M48.8484 23.7306C50.0806 23.8847 52.6288 24.929 53.4646 27.8742L53.5398 28.1652L53.5437 28.1818L53.5467 28.1974C53.619 28.6318 53.7169 29.3059 53.7752 29.9181C53.8042 30.2232 53.825 30.5235 53.826 30.7746C53.8264 30.8996 53.8218 31.0223 53.8094 31.132C53.7983 31.2294 53.7755 31.3667 53.7137 31.4904L53.576 31.7668H43.9539V33.0871C44.2301 33.7587 44.7122 34.7053 45.5213 35.2463H49.0799C49.3052 35.1114 49.6552 34.8406 49.9978 34.4689C50.389 34.0445 50.7249 33.5426 50.866 33.049L50.9695 32.6867H53.6433L53.5467 33.2687C53.4323 33.9548 53.1443 35.0047 52.408 35.9474C51.6602 36.9046 50.4737 37.7196 48.6355 37.9494L48.6043 37.9533H45.3035L45.2361 37.9338C44.3609 37.6837 43.3708 36.9654 42.6043 35.9718C41.8302 34.9684 41.247 33.6371 41.2469 32.1203V28.4289L41.2635 28.3664L41.3465 28.0773C41.5683 27.3684 41.9885 26.4241 42.6941 25.5939C43.5096 24.6344 44.7144 23.8221 46.4129 23.7277L46.4265 23.7267H48.8181L48.8484 23.7306ZM45.5867 26.1466C44.7334 26.5733 43.6668 27.2132 43.6668 29.5597H51.1336C51.1336 28.4931 51.1759 26.8293 48.7869 26.1466H45.5867Z" fill="#DA5214"/>
<path d="M29.16 37.4532V21.2399H31.08V25.5065C31.4213 24.6532 32.7867 24.2976 33.4267 24.2265H36.2C39.1013 24.5679 39.8978 27.071 40.04 28.2799V37.4532H38.3333V28.2799C38.3333 27.0852 37.3378 26.2176 36.84 25.9332H33C31.976 25.9332 31.1511 27.071 30.8667 27.6399V37.4532H29.16Z" fill="#DA5214" stroke="#DA5214"/>
<path d="M18.7067 24.2265H16.7867V37.4532H18.7067V28.0665C18.8773 27.0425 19.9156 26.2177 20.4133 25.9332H24.2533C25.6187 26.6159 26.1022 27.7821 26.1733 28.2799V37.4532H27.6667V28.2799C27.496 25.8905 25.6045 24.7954 24.68 24.4399H21.0533C20.3707 24.4399 19.2045 25.0799 18.7067 25.5065V24.2265Z" fill="#DA5214" stroke="#DA5214"/>
<path d="M15.5067 24.4399H13.8V37.4532H15.5067V24.4399Z" fill="#DA5214"/>
<path d="M15.5067 22.9465H13.8V21.2399H15.5067V22.9465Z" fill="#DA5214"/>
<path d="M15.5067 24.4399H13.8V37.4532H15.5067V24.4399Z" stroke="#DA5214"/>
<path d="M15.5067 22.9465H13.8V21.2399H15.5067V22.9465Z" stroke="#DA5214"/>
<path d="M56.4667 24.4399H54.76V37.4532H56.4667V24.4399Z" fill="#DA5214"/>
<path d="M56.4667 22.9465H54.76V21.2399H56.4667V22.9465Z" fill="#DA5214"/>
<path d="M56.4667 24.4399H54.76V37.4532H56.4667V24.4399Z" stroke="#DA5214"/>
<path d="M56.4667 22.9465H54.76V21.2399H56.4667V22.9465Z" stroke="#DA5214"/>
<path d="M1 22.9465V21.4532V21.2399H6.97333C11.24 21.7519 12.3067 25.0088 12.3067 26.5732V31.6932C12.0933 35.5332 9.74667 36.8132 8.04 37.4532H1V35.5332H8.04C9.96 34.8932 10.5289 33.0443 10.6 32.1199V25.5065C9.53333 23.7999 9.10667 23.5865 7.82667 22.9465H1Z" fill="#DA5214" stroke="#DA5214"/>
<path d="M78.0133 2.2532V0.546537H81V2.2532H78.0133Z" fill="#DA5214"/>
<path d="M78.0133 16.5465V3.74654H81V16.5465H78.0133Z" fill="#DA5214"/>
<path d="M78.0133 2.2532V0.546537H81V2.2532H78.0133Z" stroke="#DA5214"/>
<path d="M78.0133 16.5465V3.74654H81V16.5465H78.0133Z" stroke="#DA5214"/>
<path d="M40.0404 3.0339V3.03292H42.8275L42.8412 3.0339C44.2442 3.11191 47.2697 4.09849 48.2015 7.45284L48.2201 7.51827V11.7136H38.3763C38.6057 12.2828 38.9857 12.7977 39.7045 13.0603H42.9095C43.0906 12.9685 43.3302 12.8101 43.558 12.6179C43.8304 12.388 44.0132 12.175 44.0726 12.0564L44.2113 11.78H48.2484L48.2191 12.3073C48.1367 13.7884 46.9563 16.5199 43.1205 17.2507L43.0736 17.2605H39.1302L39.0746 17.2468C36.0732 16.5542 34.2269 14.0151 33.9955 11.4724L33.9935 11.4489V8.37862L34.0082 8.31905C34.2367 7.40499 34.8018 6.05878 35.7709 4.95284C36.7444 3.84192 38.1538 2.94793 40.0404 3.0339ZM39.8265 6.51925C39.1865 6.73258 38.0493 7.87126 37.6937 8.44015H44.7338C44.0938 7.37348 43.0266 6.73258 42.6 6.51925H39.8265Z" fill="#DA5214"/>
<path d="M31.2933 3.74654V0.546537H28.3067V13.3465C28.52 15.6932 30.1556 16.4754 31.2933 16.7599H33.64V13.5599H31.5067V6.51987H33.64V3.74654H31.2933Z" fill="#DA5214" stroke="#DA5214"/>
<path d="M12.9467 3.74654V0.546537H1V3.74654H12.9467Z" fill="#DA5214"/>
<path d="M12.7333 10.3599V6.94654H1V16.9732H12.7333V13.5599H4.2V10.3599H12.7333Z" fill="#DA5214"/>
<path d="M12.9467 3.74654V0.546537H1V3.74654H12.9467Z" stroke="#DA5214"/>
<path d="M12.7333 10.3599V6.94654H1V16.9732H12.7333V13.5599H4.2V10.3599H12.7333Z" stroke="#DA5214"/>
<path d="M17.2133 3.74654H14.2267V3.95987V16.7599H17.2133V8.65321C17.0427 7.28787 18.1378 6.80432 18.7067 6.73321H22.12C23.4 6.94654 23.5422 8.36876 23.6133 9.07987V16.7599H26.6V8.43987C25.96 2.2532 18.92 3.10654 17.2133 4.59987V3.74654Z" fill="#DA5214" stroke="#DA5214"/>
<path d="M52.6267 3.74654H49.64V3.95987V16.7599H52.6267V8.65321C52.456 7.28787 53.5511 6.80432 54.12 6.73321H57.5333C58.8133 6.94654 58.9556 8.36876 59.0267 9.07987V16.7599H62.0133V8.43987C61.3733 2.2532 54.3333 3.10654 52.6267 4.59987V3.74654Z" fill="#DA5214" stroke="#DA5214"/>
<path d="M77.2334 17.4735H73.0332V16.2371C72.7551 16.4641 72.4273 16.6582 72.1289 16.8104C71.7431 17.0071 71.3677 17.1556 71.1318 17.2342L71.0547 17.2596H67.6973L67.624 17.2371C66.1381 16.7727 64.9924 15.7921 64.2217 14.8006C63.8353 14.3035 63.5361 13.7946 63.332 13.3319C63.1328 12.88 63.0069 12.4324 63.0068 12.0662V8.44027C63.0068 6.97591 63.7968 5.67813 64.8223 4.73812C65.8464 3.79938 67.1703 3.15541 68.3633 3.03598L68.3887 3.03305H70.3691L70.4043 3.03793C71.4263 3.18398 72.2342 3.60251 72.8203 4.0018V0.0467186H77.2334V17.4735ZM69.9062 6.30648C66.7067 6.30663 66.2803 8.01318 66.2803 10.1463C66.2803 12.8077 67.9035 13.986 69.9062 13.9862C72.8929 13.7728 73.5332 12.2671 73.5332 10.1463C73.7464 6.9465 71.9092 6.30648 69.9062 6.30648Z" fill="#DA5214"/>
</svg>
